<?xml version="1.0" encoding="UTF-8"?>
<svg width="19px" height="19px" viewBox="0 0 19 19" version="1.1" xmlns="http://www.w3.org/2000/svg" xmlns:xlink="http://www.w3.org/1999/xlink">
    <title>19*19</title>
    <defs>
        <polygon id="path-1" points="5.70469799e-05 -1.00660221e-14 14.8690101 -1.00660221e-14 14.8690101 16.9977839 5.70469799e-05 16.9977839"></polygon>
    </defs>
    <g id="19*19" stroke="none" stroke-width="1" fill="none" fill-rule="evenodd">
        <g id="Group-3" transform="translate(2.000000, 1.000000)">
            <mask id="mask-2" fill="white">
                <use xlink:href="#path-1"></use>
            </mask>
            <g id="Clip-2"></g>
            <path d="M12.9659799,5.87911321 L12.9659799,11.793976 L7.95525839,14.7514803 L7.95525839,16.9977839 L14.0903758,13.3767547 C14.570854,13.0930326 14.8690671,12.5652453 14.8690671,11.9980926 L14.8690671,4.75588851 L12.9659799,5.87911321 Z M1.90300168,5.87911321 L5.70469799e-05,4.75588851 L5.70469799e-05,11.9980926 C5.70469799e-05,12.5652453 0.298127517,13.0930326 0.778605705,13.3767547 L6.91358054,16.9977839 L6.91358054,14.7514803 L1.90300168,11.793976 L1.90300168,5.87911321 Z M7.43456208,1.99943911 L12.4452836,4.9569434 L14.3480856,3.8337187 L8.21311074,0.212689537 C7.73263255,-0.0710325901 7.13634899,-0.0710325901 6.65587081,0.212689537 L0.520753356,3.8337187 L2.4238406,4.9569434 L7.43456208,1.99943911 Z" id="Fill-1" fill="#122039" mask="url(#mask-2)"></path>
            <path d="M9.50080369,4.44533962 L7.43456208,5.66493654 L5.36789262,4.44533962 L3.4650906,5.56841852 L6.65601342,7.4518319 C7.13649161,7.73526244 7.73277517,7.73526244 8.21311074,7.4518319 L11.4038909,5.56856432 L9.50080369,4.44533962 Z" id="Path" fill="#FCB811" mask="url(#mask-2)"></path>
            <path d="M7.95525839,13.5222607 L9.85820302,12.3991818 L9.85820302,9.9598422 L11.9245872,8.74024528 L11.9245872,6.49379588 L8.73380705,8.37706346 C8.25332886,8.66063979 7.95525839,9.1884271 7.95525839,9.75572556 L7.95525839,13.5222607 Z" id="Path" fill="#00BEDE" mask="url(#mask-2)"></path>
            <path d="M2.9443943,8.74024528 L5.01077852,9.9598422 L5.01077852,12.3991818 L6.91358054,13.5222607 L6.91358054,9.75572556 C6.91358054,9.1884271 6.61565268,8.66063979 6.13503188,8.37706346 L2.9443943,6.49379588 L2.9443943,8.74024528 Z" id="Path" fill="#EC0A6E" mask="url(#mask-2)"></path>
        </g>
    </g>
</svg>